<svg xmlns="http://www.w3.org/2000/svg" xmlns:xlink="http://www.w3.org/1999/xlink" width="1080" viewBox="0 0 1080 675" height="675" version="1.0"><defs><clipPath id="b"><path d="M 0.796875 0 L 1079.199219 0 L 1079.199219 674 L 0.796875 674 Z M 0.796875 0"/></clipPath><clipPath id="e"><path d="M 0.796875 0 L 1079.199219 0 L 1079.199219 674 L 0.796875 674 Z M 0.796875 0"/></clipPath><clipPath id="d"><path d="M0 0H1080V674H0z"/></clipPath><clipPath id="f"><path d="M 0.796875 160 L 501 160 L 501 475 L 0.796875 475 Z M 0.796875 160"/></clipPath><clipPath id="i"><path d="M 0.796875 0.324219 L 500.21875 0.324219 L 500.21875 314.976562 L 0.796875 314.976562 Z M 0.796875 0.324219"/></clipPath><clipPath id="h"><path d="M0 0H501V315H0z"/></clipPath><clipPath id="j"><path d="M 632 149 L 1079.199219 149 L 1079.199219 464 L 632 464 Z M 632 149"/></clipPath><clipPath id="m"><path d="M 0.261719 0.300781 L 447.199219 0.300781 L 447.199219 314.714844 L 0.261719 314.714844 Z M 0.261719 0.300781"/></clipPath><clipPath id="l"><path d="M0 0H448V315H0z"/></clipPath><mask id="c"><g filter="url(#a)"><path fill-opacity=".447" d="M-108 -67.5H1188V742.5H-108z"/></g></mask><mask id="g"><g filter="url(#a)"><path fill-opacity=".2" d="M-108 -67.5H1188V742.5H-108z"/></g></mask><mask id="k"><g filter="url(#a)"><path fill-opacity=".2" d="M-108 -67.5H1188V742.5H-108z"/></g></mask><filter x="0%" y="0%" width="100%" xmlns:xlink="http://www.w3.org/1999/xlink" xlink:type="simple" xlink:actuate="onLoad" height="100%" id="a" xlink:show="other"><feColorMatrix values="0 0 0 0 1 0 0 0 0 1 0 0 0 0 1 0 0 0 1 0" color-interpolation-filters="sRGB"/></filter></defs><g clip-path="url(#b)"><path fill="#FFF" d="M 0.796875 0 L 1079.199219 0 L 1079.199219 681.492188 L 0.796875 681.492188 Z M 0.796875 0"/><path fill="#FFF" d="M 0.796875 0 L 1079.199219 0 L 1079.199219 674 L 0.796875 674 Z M 0.796875 0"/><path fill="#E5E5E5" d="M 0.796875 0 L 1079.199219 0 L 1079.199219 674 L 0.796875 674 Z M 0.796875 0"/><g mask="url(#c)"><g><g clip-path="url(#d)"><g clip-path="url(#e)"><path fill="#F0F0F0" d="M -135.167969 535.695312 L 1060.605469 -150.574219 L 1214.558594 117.679688 L 18.785156 803.945312 Z M -135.167969 535.695312"/></g></g></g></g></g><g clip-path="url(#f)"><g mask="url(#g)"><g><g clip-path="url(#h)" transform="translate(0 160)"><g clip-path="url(#i)"><path stroke-linecap="round" transform="matrix(8.43354 -4.86998 4.9639 8.5962 -19.204 306.165)" fill="none" d="M 0.499865 -0.0000565764 L 60.403849 0.00000605097" stroke="#3766E8"/></g></g></g></g></g><g clip-path="url(#j)"><g mask="url(#k)"><g><g clip-path="url(#l)" transform="translate(632 149)"><g clip-path="url(#m)"><path stroke-linecap="round" transform="matrix(8.43354 -4.86998 4.9639 8.5962 5.294 306.097)" fill="none" d="M 0.500141 -0.000122883 L 60.404125 -0.0000602553" stroke="#3766E8"/></g></g></g></g></g></svg>